<svg width="100" height="40" viewBox="0 0 100 40" fill="none" xmlns="http://www.w3.org/2000/svg">
  <path d="M20 10C26.0751 10 31 14.9249 31 21C31 27.0751 26.0751 32 20 32C13.9249 32 9 27.0751 9 21C9 14.9249 13.9249 10 20 10ZM20 14C16.134 14 13 17.134 13 21C13 24.866 16.134 28 20 28C23.866 28 27 24.866 27 21C27 17.134 23.866 14 20 14Z" fill="currentColor"/>
  <path d="M40 13H44V29H40V13Z" fill="currentColor"/>
  <path d="M48 13H52L58 23L64 13H68V29H64V19L59 27H57L52 19V29H48V13Z" fill="currentColor"/>
  <path d="M72 13H88V17H76V19H86V23H76V25H88V29H72V13Z" fill="currentColor"/>
</svg> 