<svg width="100" height="40" viewBox="0 0 100 40" fill="none" xmlns="http://www.w3.org/2000/svg">
  <path d="M15 8C19.9706 8 24 12.0294 24 17C24 21.9706 19.9706 26 15 26C10.0294 26 6 21.9706 6 17C6 12.0294 10.0294 8 15 8ZM15 12C12.2386 12 10 14.2386 10 17C10 19.7614 12.2386 22 15 22C17.7614 22 20 19.7614 20 17C20 14.2386 17.7614 12 15 12Z" fill="currentColor"/>
  <path d="M28 10H32V30H28V10Z" fill="currentColor"/>
  <path d="M36 10H40V30H36V10Z" fill="currentColor"/>
  <path d="M44 10H56C60.4183 10 64 13.5817 64 18C64 22.4183 60.4183 26 56 26H48V30H44V10ZM48 22H56C58.2091 22 60 20.2091 60 18C60 15.7909 58.2091 14 56 14H48V22Z" fill="currentColor"/>
  <path d="M68 10H84V14H72V18H82V22H72V26H84V30H68V10Z" fill="currentColor"/>
</svg> 