<svg width="100" height="40" viewBox="0 0 100 40" fill="none" xmlns="http://www.w3.org/2000/svg">
  <path d="M20.4995 32.0271L11.9772 17.5618C11.1731 16.2641 11.1731 14.6853 11.9772 13.3876L20.4995 -1.07764C21.3036 -2.37534 22.6964 -3.16419 24.1747 -3.16419H41.2193C42.6976 -3.16419 44.0904 -2.37534 44.8945 -1.07764L53.4168 13.3876C54.2209 14.6853 54.2209 16.2641 53.4168 17.5618L44.8945 32.0271C44.0904 33.3248 42.6976 34.1136 41.2193 34.1136H24.1747C22.6964 34.1136 21.3036 33.3248 20.4995 32.0271Z" fill="#00DC82"/>
  <path d="M68 10H84V14H72V18H82V22H72V26H84V30H68V10Z" fill="currentColor"/>
</svg> 